<?xml version="1.0" encoding="utf-8"?>
<!-- Generator: Adobe Illustrator 18.0.0, SVG Export Plug-In . SVG Version: 6.00 Build 0)  -->
<!DOCTYPE svg PUBLIC "-//W3C//DTD SVG 1.1//EN" "http://www.w3.org/Graphics/SVG/1.1/DTD/svg11.dtd">
<svg version="1.1" id="Layer_1" xmlns="http://www.w3.org/2000/svg" xmlns:xlink="http://www.w3.org/1999/xlink" x="0px" y="0px"
	 viewBox="0 0 512.9 214.4" enable-background="new 0 0 512.9 214.4" xml:space="preserve">
<rect x="-222.6" y="-91.6" display="none" fill="#233B76" width="906.5" height="367.7"/>
<g>
	<path fill="#14499E" d="M-0.1,157.9L11,141c8.6,11.2,18,16.8,28,16.8c5.1,0,9.4-1.5,12.9-4.4c3.5-2.9,5.2-6.6,5.2-11
		c0-4-1.5-7.1-4.6-9.3c-2.7-1.8-8.1-4.2-16.4-7.3c-6.2-2.3-10.5-4-13-5.3c-2.5-1.3-5-3-7.5-5.2c-6.6-5.8-9.9-13.4-9.9-22.7
		c0-10.3,3.7-18.7,11-25.4c7.3-6.6,16.6-9.9,28-9.9c14.1,0,25.6,5.3,34.4,15.9L66.6,88.5c-6.6-8-13.7-11.9-21.3-12
		c-4.3,0-7.9,1.2-10.8,3.7c-2.9,2.5-4.3,5.6-4.4,9.5c0,3.3,1.2,6.1,3.7,8.4c1.5,1.4,3.1,2.5,4.8,3.4c1.7,0.9,5.2,2.2,10.5,4.1
		c5.3,1.9,9.5,3.6,12.6,5.1c3.1,1.5,5.9,3.2,8.4,5.2c7.3,5.8,10.9,13.7,10.9,23.8c0,11.3-3.9,20.5-11.7,27.6
		c-7.7,7.2-17.7,10.7-30,10.7C23.1,177.9,10,171.2-0.1,157.9z"/>
	<path fill="#FED600" d="M156.3,100.6l-7.3,18c-5.4-2.5-10.4-3.7-15.1-3.7c-6,0-11.1,2-15.1,6.1c-4.1,4.1-6.1,9.3-6.2,15.5
		c0,6.5,2,11.7,5.9,15.7c4,4,9.2,6,15.6,6c4.8,0,9.7-1.5,14.7-4.6l7.7,16.3l-5.3,3.4c-6.3,3.3-13.4,5-21.3,4.9
		c-11.7,0-21.4-3.9-29-11.8c-7.7-7.8-11.5-17.7-11.4-29.6c0-12.4,4-22.5,12.1-30.4c8-7.9,18.2-11.8,30.5-11.8
		C140,94.6,148.1,96.6,156.3,100.6z"/>
	<path fill="#FED600" d="M161.1,136.4c0-12.2,4.1-22.2,12.1-30c8.1-7.8,18.3-11.7,30.8-11.7c12.3,0,22.5,4,30.6,11.8
		c8,7.8,12,17.9,12,30.1c0,12.2-4.1,22.2-12.1,30c-8.1,7.8-18.3,11.7-30.6,11.7c-12.5,0-22.7-4-30.7-11.8
		C165.1,158.7,161.1,148.6,161.1,136.4z M204,114.2c-6,0-11,2.1-15,6.2c-4,4.2-6,9.5-6,16c0,6.4,2,11.7,5.9,15.9
		c4,4.2,8.9,6.3,15,6.3c5.9,0,10.8-2.1,14.8-6.2c4-4.2,6-9.5,6-15.9c0-6.3-2-11.6-5.9-15.9C214.8,116.4,209.9,114.2,204,114.2z"/>
	<path fill="#14499E" d="M258.3,176l0.2-116.1l23.2,0L281.4,176L258.3,176z"/>
	<path fill="#14499E" d="M294.5,74.6c0-3.2,1.4-6.1,4-8.5c2.7-2.5,5.9-3.7,9.7-3.7c3.9,0,7.1,1.2,9.8,3.6c2.7,2.4,4,5.3,4,8.7
		c0,3.4-1.3,6.3-3.9,8.7c-2.6,2.4-5.9,3.5-10,3.5c-3.8,0-7-1.2-9.7-3.6C295.9,81,294.5,78.1,294.5,74.6z M296.6,176.1l0.2-79l23,0
		l-0.2,79.1L296.6,176.1z"/>
	<path fill="#14499E" d="M334.2,176.2l0.2-79l23.2,0l0,11.6c2.3-4.4,5.5-7.8,9.8-10.1c4.3-2.4,9.2-3.5,14.8-3.5
		c8.6,0,15.4,2.9,20.4,8.6c2.1,2.6,3.6,5.5,4.4,8.9c0.8,3.3,1.2,7.9,1.2,13.7l-0.1,50.1l-23.2,0l0.1-44.4l0-7.3
		c-0.5-3-2-5.5-4.3-7.4c-2.3-1.9-5.1-2.9-8.4-2.9c-4.7,0-8.3,1.7-10.9,5.1c-2.6,3.4-3.9,8.3-3.9,14.5l-0.1,42.3L334.2,176.2z"/>
	<path fill="#14499E" d="M501.9,144.3l-59.2-0.1c0.8,5.5,3,9.8,6.5,13c3.5,3.2,7.7,4.8,12.8,4.8c3.8,0,7.6-1.1,11.5-3.4
		c3.9-2.2,7.1-5.2,9.6-8.8l16.4,11.3c-5.2,6.3-10.6,10.9-16.5,13.7c-5.8,2.8-12.8,4.2-20.9,4.1c-12.6,0-22.7-3.8-30.5-11.4
		c-7.8-7.6-11.6-17.4-11.6-29.6c0-12.2,4-22.4,11.8-30.6c7.9-8.1,17.8-12.2,29.8-12.2c12,0,21.8,4,29.3,12
		c7.5,8,11.2,18.4,11.2,31.3L501.9,144.3z M461.4,111.9c-10.2,0-16.4,5.8-18.7,17.3l36.5,0.1c-0.6-5.4-2.5-9.6-5.7-12.7
		C470.4,113.4,466.3,111.9,461.4,111.9z"/>
</g>
<g>
	<g>
		<path fill="#FED600" d="M271.4,7.5h-10.8V6.4c0-1.9-1.5-3.4-3.4-3.4c-1.9,0-3.4,1.5-3.4,3.4v1.1H63.9c-1.9,0-3.4,1.5-3.4,3.4v13.7
			c0,1.9,1.5,3.4,3.4,3.4h50.7v59.4c0,1.2,0.6,2.3,1.7,2.9c1,0.6,2.3,0.6,3.4,0c6-3.3,12.8-5.1,19.7-5.1c9.5,0,18.7,3.3,26,9.4
			c0.6,0.5,1.4,0.8,2.2,0.8s1.6-0.3,2.2-0.8c7.3-6.1,16.5-9.4,26-9.4c6.9,0,13.7,1.8,19.7,5.1c1.1,0.6,2.4,0.6,3.4,0
			c1-0.6,1.7-1.7,1.7-2.9V38.3c0-1.9-1.5-3.4-3.4-3.4s-3.4,1.5-3.4,3.4V82c-5.7-2.3-11.8-3.5-18-3.5c-10.2,0-20.1,3.3-28.2,9.3
			c-8.1-6-18.1-9.3-28.2-9.3c-6.2,0-12.3,1.2-18,3.5V28h132.3v48.2c-1.6,0.6-3.1,1.6-4.2,2.8c1.4,0.5,2.6,1.3,3.8,2
			c0.3,0.2,0.6,0.4,0.9,0.6c0.7-0.5,1.7-0.8,2.8-0.8c1.6,0,2.8,0.6,3.6,1.6c0.4-1.8,1.6-3.4,3.8-3.8c-1.1-1.1-2.4-1.9-3.8-2.4V28
			h10.8c1.9,0,3.4-1.5,3.4-3.4V10.9C274.8,9.1,273.3,7.5,271.4,7.5z M253.7,21.2H67.3v-6.8h186.4V21.2z M267.9,21.2h-7.4v-6.8h7.4
			V21.2z"/>
	</g>
	<circle fill="#FED600" cx="257.3" cy="85.6" r="10"/>
</g>
</svg>
