<?xml version="1.0" encoding="utf-8"?>
<!-- Generator: Adobe Illustrator 18.0.0, SVG Export Plug-In . SVG Version: 6.00 Build 0)  -->
<!DOCTYPE svg PUBLIC "-//W3C//DTD SVG 1.1//EN" "http://www.w3.org/Graphics/SVG/1.1/DTD/svg11.dtd">
<svg version="1.1" id="Layer_1" xmlns="http://www.w3.org/2000/svg" xmlns:xlink="http://www.w3.org/1999/xlink" x="0px" y="0px"
	 viewBox="0 0 230.8 51.8" enable-background="new 0 0 230.8 51.8" xml:space="preserve">
<g>
	<path fill="#FFFFFF" d="M117.1,10.9h-1.8c-0.9-2-2.7-3.2-5.2-3.2c-3.4,0-6,2.4-6,6.4c0,4,2.6,6.4,6,6.4c3.2,0,5.6-2.2,5.8-5.6h-6.4
		v-1.2h8v1.1c-0.2,4-3.3,7.1-7.4,7.1c-4.3,0-7.6-3.2-7.6-7.8c0-4.6,3.3-7.8,7.6-7.8C113.5,6.3,116,8,117.1,10.9z"/>
	<path fill="#FFFFFF" d="M121.9,6.4v14h5.5v1.2h-7V6.4H121.9z"/>
	<path fill="#FFFFFF" d="M136.5,21.9c-4.3,0-7.6-3.2-7.6-7.8c0-4.6,3.3-7.8,7.6-7.8c4.3,0,7.6,3.2,7.6,7.8
		C144,18.6,140.8,21.9,136.5,21.9z M136.5,20.5c3.4,0,6-2.5,6-6.5s-2.6-6.5-6-6.5c-3.4,0-6,2.4-6,6.5S133.1,20.5,136.5,20.5z"/>
	<path fill="#FFFFFF" d="M152.1,21.7h-5.3V6.4h5.1c3.2,0,4.7,1.7,4.7,3.8c0,2-1.3,3.1-2.7,3.5c1.7,0.3,3.1,1.9,3.1,3.8
		C157.1,19.9,155.3,21.7,152.1,21.7z M151.9,7.7h-3.5v5.5h3.6c2.1,0,3.2-1,3.2-2.8C155.2,8.8,154.1,7.7,151.9,7.7z M152,14.4h-3.6v6
		h3.7c2.2,0,3.5-1.1,3.5-3C155.5,15.6,154.1,14.4,152,14.4z"/>
	<path fill="#FFFFFF" d="M168.7,18.1h-7l-1.3,3.6h-1.6l5.6-15.1h1.7l5.6,15.1h-1.6L168.7,18.1z M165.3,8.5l-3,8.3h6L165.3,8.5z"/>
	<path fill="#FFFFFF" d="M175.7,6.4v14h5.5v1.2h-7V6.4H175.7z"/>
	<path fill="#FFFFFF" d="M109,42.4h-2.3v5.5h-3.7V32.6h6.1c3.8,0,5.6,2.1,5.6,4.9C114.6,40.1,112.9,42.4,109,42.4z M108.7,39.5
		c1.5,0,2.1-0.7,2.1-1.9s-0.6-1.9-2.1-1.9h-2v3.8H108.7z"/>
	<path fill="#FFFFFF" d="M122.8,32.6c3.8,0,5.6,2.2,5.6,4.8c0,1.9-1,3.7-3.4,4.4l3.5,6.1h-4.2l-3.2-5.8h-0.9v5.8h-3.7V32.6H122.8z
		 M122.6,35.7h-2.3v3.8h2.3c1.4,0,2.1-0.7,2.1-1.9C124.7,36.4,124,35.7,122.6,35.7z"/>
	<path fill="#FFFFFF" d="M138.1,48.1c-4.4,0-7.9-3.3-7.9-7.9c0-4.6,3.5-7.9,7.9-7.9c4.4,0,7.8,3.2,7.8,7.9
		C145.9,44.8,142.4,48.1,138.1,48.1z M138.1,44.7c2.4,0,4-1.8,4-4.5c0-2.7-1.6-4.5-4-4.5c-2.5,0-4.1,1.7-4.1,4.5
		C134,42.9,135.6,44.7,138.1,44.7z"/>
	<path fill="#FFFFFF" d="M154,42.4h-2.3v5.5H148V32.6h6.1c3.8,0,5.6,2.1,5.6,4.9C159.7,40.1,158,42.4,154,42.4z M153.8,39.5
		c1.5,0,2.1-0.7,2.1-1.9s-0.6-1.9-2.1-1.9h-2v3.8H153.8z"/>
	<path fill="#FFFFFF" d="M171,35.6h-5.7v3.1h5v2.9h-5v3.4h5.7v3h-9.4V32.6h9.4V35.6z"/>
	<path fill="#FFFFFF" d="M179.7,32.6c3.8,0,5.6,2.2,5.6,4.8c0,1.9-1,3.7-3.4,4.4l3.5,6.1h-4.2l-3.2-5.8h-0.9v5.8h-3.7V32.6H179.7z
		 M179.5,35.7h-2.3v3.8h2.3c1.4,0,2.1-0.7,2.1-1.9C181.6,36.4,180.9,35.7,179.5,35.7z"/>
	<path fill="#FFFFFF" d="M186.9,32.6h11.9v3h-4.1v12.4H191V35.6h-4.1V32.6z"/>
	<path fill="#FFFFFF" d="M200.6,32.6h3.7v15.4h-3.7V32.6z"/>
	<path fill="#FFFFFF" d="M216.5,35.6h-5.7v3.1h5v2.9h-5v3.4h5.7v3h-9.4V32.6h9.4V35.6z"/>
	<path fill="#FFFFFF" d="M224.5,48.1c-3.3,0-5.9-1.6-6-4.7h4c0.1,1.2,0.9,1.7,1.9,1.7c1.1,0,1.8-0.5,1.8-1.4c0-2.8-7.7-1.3-7.6-6.8
		c0-2.9,2.4-4.5,5.6-4.5c3.3,0,5.6,1.7,5.8,4.6h-4c-0.1-1-0.8-1.6-1.8-1.6c-0.9,0-1.6,0.4-1.6,1.4c0,2.7,7.6,1.5,7.6,6.6
		C230.1,46,228.1,48.1,224.5,48.1z"/>
</g>
<g>
	<g>
		<polygon fill="#FFFFFF" points="58.1,7.3 45.3,0 45.3,7.3 58.1,14.5 		"/>
		<polygon fill="#FFFFFF" points="58.1,21.8 45.3,14.6 45.3,21.8 58.1,29.1 		"/>
	</g>
	<g>
		<polygon fill="#FFFFFF" points="31.2,28.9 45.3,21.8 45.3,14.6 31.2,21.6 		"/>
		<polygon fill="#FFFFFF" points="31.2,7.1 31.2,14.3 45.3,7.3 45.3,0 		"/>
	</g>
	<polygon fill="#FFFFFF" points="67.3,17.8 67.3,25 87.9,36.8 87.9,29.5 	"/>
	<polygon fill="#FFFFFF" points="67.3,32.9 67.3,40.1 87.9,51.8 87.9,44.6 	"/>
	<polygon fill="#FFFFFF" points="23.4,17.8 23.4,25 44,36.8 44,29.5 	"/>
	<polygon fill="#FFFFFF" points="23.4,32.9 23.4,40.1 44,51.8 44,44.6 	"/>
	<g>
		<polygon fill="#FFFFFF" points="44,51.8 67.3,40.1 67.3,32.9 44,44.6 		"/>
		<polygon fill="#FFFFFF" points="44,29.5 44,36.8 67.3,25 67.3,17.8 		"/>
	</g>
	<g>
		<polygon fill="#FFFFFF" points="0,51.8 23.4,40.1 23.4,32.9 0,44.6 		"/>
		<polygon fill="#FFFFFF" points="0,29.5 0,36.8 23.4,25 23.4,17.8 		"/>
	</g>
</g>
</svg>
